# xmcd
#
# Track frame offsets:
#	150
#	12425
#	23525
#	38325
#	53165
#	67705
#	79628
#	91965
#	104435
#	117690
#	130463
#	143313
#	156615
#	169268
#	182660
#	195530
#
# Disc length: 2737
#
# Revision: 1
# Processed by: cddbd v1.5.1PL0 Copyright (c) Steve Scherf et al.
# Submitted via: CDex 1.40Release
# Normalized: r0:DSETVAR1
#
DISCID=ca0aaf10
DTITLE=Various Artist - Hand Me Down Blues
DYEAR=1900
DGENRE=Blues
TTITLE0=Watch Yourself - Henry Gray
TTITLE1=That Ain't Right - Henry Gray
TTITLE2=Goodbye Baby - Henry Gray
TTITLE3=You Messed Up - Henry Gray
TTITLE4=He Don't Love You - Dusty Brown
TTITLE5=Yes, She's Gone - Dusty Brown
TTITLE6=Hurry Home - Dusty Brown
TTITLE7=Rusty Dusty - Dusty Brown
TTITLE8=Hand Me Down Blues - Albert King
TTITLE9=Little Boy Blue - Albert King
TTITLE10=Gary Stomp - John Brim
TTITLE11=Going Back To Memphis - Sunnyland Slim
TTITLE12=Devil Is A Busy Man - Sunnyland Slim
TTITLE13=Crosstown Blues - Snooky Prior
TTITLE14=I Want You For Myself - Snooky Prior
TTITLE15=Four Day Jump - Little Willie Foster
EXTD=ID3G: 0
EXTT0=
EXTT1=
EXTT2=
EXTT3=
EXTT4=
EXTT5=
EXTT6=
EXTT7=
EXTT8=
EXTT9=
EXTT10=
EXTT11=
EXTT12=
EXTT13=
EXTT14=
EXTT15=
PLAYORDER=
